<svg width="52" height="92" viewBox="0 0 52 92" fill="none" xmlns="http://www.w3.org/2000/svg">
<path d="M25.9851 90.3567C12.186 90.3567 1 77.8257 1 62.3673V29.9596C1 14.5013 12.186 1.97021 25.9851 1.97021C39.7842 1.97021 50.9702 14.5013 50.9702 29.9596V62.3673C50.9702 77.8257 39.7842 90.3567 25.9851 90.3567Z" stroke="black" stroke-width="2" stroke-miterlimit="10"/>
<path d="M32.9299 52.0944C33.3363 51.9705 33.7914 51.9014 34.3126 51.9014C38.4763 51.9014 38.4763 56.4049 42.6414 56.4049C46.8051 56.4049 46.8051 51.9014 50.9703 51.9014" stroke="black" stroke-width="2" stroke-miterlimit="10"/>
<path d="M1 51.8999C5.1637 51.8999 5.1637 56.4034 9.32741 56.4034C13.4911 56.4034 13.4911 51.8999 17.6548 51.8999C18.1085 51.8999 18.5134 51.953 18.8781 52.0479" stroke="black" stroke-width="2" stroke-miterlimit="10"/>
<path d="M30.647 40.4462C31.5458 39.523 32.5608 38.7236 34.3125 38.7236C38.4762 38.7236 38.4762 43.2272 42.6413 43.2272C46.805 43.2272 46.805 38.7236 50.9702 38.7236" stroke="black" stroke-width="2" stroke-miterlimit="10"/>
<path d="M1 38.7236C5.1637 38.7236 5.1637 43.2272 9.32741 43.2272C13.4911 43.2272 13.4911 38.7236 17.6548 38.7236C19.4093 38.7236 20.4244 39.523 21.3232 40.4478" stroke="black" stroke-width="2" stroke-miterlimit="10"/>
<path d="M32.1475 45.8331C32.7347 45.5147 33.431 45.312 34.3126 45.312C38.4763 45.312 38.4763 49.8155 42.6414 49.8155C46.8051 49.8155 46.8051 45.312 50.9703 45.312" stroke="black" stroke-width="2" stroke-miterlimit="10"/>
<path d="M1 45.312C5.1637 45.312 5.1637 49.8155 9.3274 49.8155C13.4911 49.8155 13.4911 45.312 17.6548 45.312C18.5378 45.312 19.2341 45.5147 19.8214 45.8331" stroke="black" stroke-width="2" stroke-miterlimit="10"/>
<path d="M33.2844 56.4887C33.2844 64.0241 31.626 71.1252 28.6928 77.3577H23.2771C20.3453 71.1252 18.6855 64.0241 18.6855 56.4887C18.6855 47.345 21.1292 38.8397 25.3245 31.7499C25.6375 31.2207 26.3324 31.2207 26.6454 31.7499C30.8421 38.8397 33.2844 47.345 33.2844 56.4887Z" stroke="black" stroke-width="2" stroke-miterlimit="10"/>
<path d="M32.7993 63.4917C38.9731 64.3329 44.8353 66.3064 50.2136 69.224" stroke="black" stroke-width="2" stroke-miterlimit="10"/>
<path d="M1.76367 69.2579C7.13916 66.3339 12.9999 64.3507 19.1723 63.5015" stroke="black" stroke-width="2" stroke-miterlimit="10"/>
<path d="M28.7461 35.7323C30.4948 34.4167 31.3491 32.136 34.3125 32.136C36.6973 32.136 37.7153 33.6125 38.9328 34.8735C38.9328 34.8735 39.6521 31.6776 39.6521 29.9598C39.6521 21.5044 33.5329 14.6494 25.9851 14.6494C18.4373 14.6494 12.3181 21.5044 12.3181 29.9598C12.3181 31.6792 12.5708 33.331 13.0374 34.8735C13.0374 34.8735 15.2729 32.136 17.6563 32.136C20.6211 32.136 21.4754 34.4183 23.2227 35.734" stroke="black" stroke-width="2" stroke-miterlimit="10"/>
<path d="M31.5644 77.3574H28.6929" stroke="black" stroke-width="2" stroke-miterlimit="10" stroke-linecap="round"/>
<path d="M23.2773 77.3574H20.4072" stroke="black" stroke-width="2" stroke-miterlimit="10" stroke-linecap="round"/>
<path d="M18.9512 61.6758L25.9964 53.7817L33.0302 61.6613" stroke="black" stroke-width="2" stroke-miterlimit="10"/>
<path d="M25.9966 53.7817V77.3577" stroke="black" stroke-width="2" stroke-miterlimit="10"/>
</svg>
